<svg width="539" height="567" viewBox="0 0 539 567" fill="none" xmlns="http://www.w3.org/2000/svg">
<g clip-path="url(#clip0)">
<path d="M268.977 543.764C224.795 567.022 177.14 571.421 139.784 561.965C101.741 552.897 74.0033 530.004 53.7501 506.994C33.402 482.099 20.5601 457.087 10.8831 422.51C1.85647 388.225 -4.01265 344.368 4.50961 288.571C11.782 234.097 34.681 176.152 62.2066 132.309C89.6226 87.5826 121.658 56.9806 144.718 36.7619C169.568 16.5579 185.487 6.75906 203.189 2.27251C220.767 -1.666 240.136 -0.292275 269.474 14.5046C297.665 26.6197 330.87 55.0808 358.198 84.1629C386.148 113.618 408.221 143.679 428.54 167.464C448.815 191.577 467.328 209.457 487.092 223.662C506.153 238.276 526.472 249.288 533.942 269.697C544.613 287.336 535.864 308.914 520.464 327.722C504.757 347.079 482.399 363.666 458.587 383.987C434.467 404.111 408.886 427.924 379.504 457.788C349.785 486.703 316.266 521.703 268.977 543.764Z" stroke="#B03BC3" stroke-opacity="0.6" stroke-miterlimit="10"/>
<path d="M470.259 287.395C467.708 271.253 457.505 258.422 446.213 243.406C434.613 228.595 421.925 211.584 407.475 191.752C392.967 172.104 376.682 149.642 357.189 128.137C337.923 106.793 315.448 86.4135 294.011 74.7514C271.068 61.9421 254.228 57.419 236.73 58.3982C219.445 59.5892 201.501 66.2679 181.416 80.8894C161.557 95.4304 139.565 117.9 119.29 148.889C99.2047 179.513 80.8153 218.65 73.2432 257.976C64.1728 298.94 63.7415 332.341 67.7761 361.313C72.0153 390.147 80.6618 414.552 95.1701 434.384C109.649 454.062 129.975 469.136 156.829 476.626C183.324 483.977 216.404 483.78 249.462 470.627C283.815 459.191 312.51 439.893 338.31 422.4C364.001 404.476 386.791 388.335 406.898 373.684C445.971 345.676 477.246 318.706 470.259 287.395Z" stroke="#B03BC3" stroke-opacity="0.6" stroke-miterlimit="10"/>
<path d="M241.532 410.979C192.452 421.136 154.68 404.9 135.216 373.757C115.409 342.38 113.918 296.105 129.369 240.863C145.675 184.548 181.489 141.195 212.735 121.568C245.377 101.174 273.472 104.499 306.012 123.862C339.363 144.169 365.266 181.508 385.073 212.146C404.537 244.027 417.905 269.2 418.168 293.986C417.547 319.992 395.408 337.631 363.636 358.178C331.498 377.644 289.735 400.033 241.532 410.979Z" stroke="#B03BC3" stroke-opacity="0.6" stroke-miterlimit="10"/>
<path d="M375.243 291.867C379.401 272.678 373.05 251.261 361.136 227.732C349.011 204.693 331.323 179.542 307.934 164.278C284.75 149.247 261.047 146.514 236.847 159.112C213.115 171.3 188.886 198.818 175.452 234.776C147.627 307.372 176.482 366.07 242.731 362.365C274.978 360.97 306.231 350.009 330.168 337.887C354.2 325.216 370.879 311.398 375.243 291.867Z" stroke="#B03BC3" stroke-opacity="0.6" stroke-miterlimit="10"/>
<path d="M250.763 322.293C211.346 318.128 195.033 279.598 213.934 237.239C233.105 194.668 272.603 177.964 302.248 198.453C332.163 219.015 348.477 257.545 339.078 283.507C329.51 309.411 290.013 326.115 250.763 322.293Z" stroke="#B03BC3" stroke-opacity="0.6" stroke-miterlimit="10"/>
<path d="M307.269 271.443C313.847 257.034 306.684 237.955 291.262 228.909C275.841 219.863 256.092 227.374 247.102 245.839C238.112 264.304 245.274 283.39 263.116 288.367C280.957 293.343 300.698 285.824 307.269 271.443Z" stroke="#B03BC3" stroke-opacity="0.6" stroke-miterlimit="10"/>
<path d="M277.412 258.057C248.461 316.689 216.747 382.343 268.977 543.763" stroke="#B03BC3" stroke-opacity="0.6" stroke-miterlimit="10"/>
<path d="M277.412 258.057C301.188 279.613 325.958 300.438 364.769 312.341C403.331 324.31 455.941 327.357 529.528 314.906" stroke="#B03BC3" stroke-opacity="0.6" stroke-miterlimit="10"/>
<path d="M277.412 258.057C306.604 242.083 332.288 232.029 353.023 213.389C373.898 195.442 389.824 168.91 402.607 135.824" stroke="#B03BC3" stroke-opacity="0.6" stroke-miterlimit="10"/>
<path d="M277.412 258.057C271.565 226.439 267.771 192.68 251.633 153.383C236.226 114.144 208.51 69.3515 171.52 17.1059" stroke="#B03BC3" stroke-opacity="0.6" stroke-miterlimit="10"/>
<path d="M277.412 258.057C244.719 254.608 209.614 255.507 165.76 275.148C122.053 294.526 69.5814 332.72 5.56213 398.535" stroke="#B03BC3" stroke-opacity="0.6" stroke-miterlimit="10"/>
</g>
<defs>
<clipPath id="clip0">
<rect width="539" height="567" fill="white"/>
</clipPath>
</defs>
</svg>
